<?xml version="1.0" encoding="UTF-8"?>
<svg id="Layer_1" data-name="Layer 1" xmlns="http://www.w3.org/2000/svg" version="1.1" viewBox="0 0 411.86 411.89">
  <defs>
    <style>
      .cls-1 {
        fill: #383838;
        stroke-width: 0px;
      }
    </style>
  </defs>
  <path class="cls-1" d="M206.03,0C92.42-.05.1,92.04,0,205.76c-.1,113.83,92.01,206.05,205.88,206.13,113.66.07,205.92-91.99,205.98-205.81C411.93,91.52,318.98.05,206.03,0ZM205.39,404.18c-109.3-.25-197.97-89.21-197.69-198.67C7.97,95.66,97.2,7.5,206.28,7.73c109.4.23,197.98,88.99,197.85,198.25.1,109.43-88.94,198.46-198.74,198.2Z"/>
  <path class="cls-1" d="M297.16,306.85c-1.45,1.32-2.91,2.63-4.44,3.85-2.49,1.99-5.03,3.93-7.58,5.85-1.18.88-2.41,1.69-3.64,2.5-2.2,1.44-4.4,2.88-6.64,4.27-1.18.74-2.42,1.38-3.65,2.04-1.54.83-3.07,1.69-4.65,2.45-1.97.94-3.98,1.8-5.98,2.7-.18.08-.38.13-.56.21-2.9,1.42-5.96,2.46-9,3.56-3.26,1.17-6.54,2.28-9.93,3.08-2.63.62-5.24,1.39-7.9,1.92-3.24.64-6.53,1.08-9.79,1.65-3.79.66-7.62.92-11.45,1.02-4.8.13-9.6.09-14.39-.03-2.91-.07-5.82-.35-8.72-.65-1.83-.19-3.62-.67-5.44-.89-3.93-.47-7.78-1.39-11.61-2.31-3.53-.85-7.01-1.9-10.47-2.98-2.05-.64-4.02-1.53-6.03-2.31-.93-.35-1.88-.65-2.79-1.05-2.44-1.06-4.89-2.13-7.3-3.26-1.37-.64-2.68-1.42-4.02-2.12-.56-.3-1.16-.53-1.72-.85-1.38-.79-2.75-1.6-4.11-2.43-1.33-.81-2.67-1.61-3.96-2.48-2.22-1.48-4.45-2.96-6.6-4.54-2.32-1.69-4.59-3.47-6.83-5.26-2.34-1.87-4.56-3.86-6.73-5.94-3.2-3.07-6.35-6.19-9.25-9.55-1.98-2.29-3.87-4.67-5.71-7.08-1.92-2.5-3.76-5.07-5.56-7.65-.94-1.34-1.72-2.78-2.58-4.17-.8-1.29-1.64-2.55-2.4-3.85-.76-1.31-1.46-2.66-2.15-4.01-1.01-1.99-2.01-3.98-2.96-6-.67-1.4-1.27-2.84-1.85-4.28-.91-2.22-1.77-4.45-2.65-6.68-.21-.52-.41-1.04-.58-1.57-.56-1.7-1.18-3.39-1.65-5.12-1.04-3.81-2.04-7.63-3-11.46-.29-1.16-.42-2.36-.62-3.54-.42-2.6-.95-5.19-1.21-7.81-.42-4.1-.68-8.21-.94-12.31-.41-6.49.18-12.94.66-19.4.28-3.64.98-7.2,1.65-10.77.52-2.74,1.04-5.49,1.74-8.19.82-3.16,1.87-6.27,2.76-9.41.86-3.01,2.04-5.88,3.25-8.75.79-1.87,1.52-3.77,2.3-5.64.21-.51.56-.97.81-1.47.81-1.64,1.55-3.31,2.42-4.92,1.26-2.31,2.58-4.59,3.91-6.86.83-1.41,1.71-2.79,2.59-4.16,2.95-4.57,6.19-8.94,9.68-13.1,2.92-3.48,6.14-6.72,9.32-9.98,1.95-2,4.01-3.9,6.12-5.72,2.36-2.03,4.82-3.94,7.27-5.85,1.86-1.44,3.76-2.83,5.67-4.2.9-.65,1.88-1.21,2.83-1.79,2.25-1.36,4.48-2.76,6.78-4.05,2.77-1.55,5.59-3.04,8.44-4.47,1.98-1,4.03-1.9,6.09-2.76,1.83-.77,3.71-1.42,5.58-2.11.97-.36,1.95-.71,2.93-1.04.76-.25,1.52-.48,2.29-.7.38-.11.81-.13,1.15-.31,1.44-.73,3.02-1.02,4.56-1.41,2.21-.55,4.41-1.13,6.62-1.66,4.7-1.12,9.52-1.58,14.28-2.35,5-.82,10.04-.55,15.13-.85,3.93.12,7.93.18,11.92.4,1.99.11,3.96.53,5.93.8,2.3.31,4.6.6,6.89.93.68.09,1.34.23,2,.39,3.38.79,6.76,1.59,10.14,2.39,1.2.29,1.6.73,1.73,1.96.07.75.12,1.51.12,2.27.01,4-.01,7.99-.02,11.99,0,2.12.02,4.24,0,6.35,0,2.38-.68,2.78-2.97,2.07-3.05-.94-6.12-1.82-9.21-2.61-2.59-.65-5.2-1.2-7.83-1.67-3.66-.65-7.36-1.02-11.07-1.15-3.2-.12-6.4-.29-9.59-.23-3.51.07-7.03.27-10.53.61-2.73.27-5.47.55-8.15,1.26-3.66.97-7.41,1.63-11.06,2.64-4.53,1.26-8.94,2.92-13.25,4.82-2.3,1.01-4.61,2.02-6.83,3.19-2.22,1.16-4.35,2.51-6.51,3.79-.92.54-1.83,1.11-2.72,1.7-1.9,1.26-3.8,2.51-5.65,3.83-1.56,1.11-3.1,2.26-4.56,3.5-2.52,2.15-5.05,4.3-7.43,6.61-2.43,2.37-4.75,4.85-6.97,7.41-2.19,2.54-4.24,5.2-6.23,7.89-1.4,1.89-2.64,3.89-3.88,5.89-1.45,2.33-2.88,4.69-4.22,7.1-.96,1.73-1.78,3.56-2.63,5.36-.51,1.08-.98,2.18-1.44,3.28-.82,1.99-1.66,3.97-2.44,5.97-.46,1.19-.85,2.41-1.22,3.63-.74,2.44-1.46,4.89-2.16,7.35-.21.72-.3,1.48-.47,2.22-.21.97-.48,1.93-.67,2.91-.23,1.13-.43,2.27-.58,3.41-.6,4.72-1.35,9.42-1.54,14.18-.24,6.03-.08,12.06.83,18.06.38,2.56.57,5.17,1.12,7.7.64,3,1.05,6.06,2.14,8.96.29.78.37,1.63.59,2.44.25.88.55,1.75.84,2.62.26.8.49,1.6.79,2.38.76,1.97,1.52,3.94,2.33,5.89s1.68,3.88,2.55,5.8c.5,1.09,1.01,2.18,1.6,3.22,1.36,2.44,2.71,4.89,4.2,7.24,1.66,2.63,3.45,5.18,5.24,7.73,2.28,3.24,4.84,6.25,7.54,9.15,1.37,1.46,2.72,2.92,4.14,4.33,1.15,1.16,2.37,2.27,3.6,3.34,1.86,1.64,3.74,3.25,5.65,4.83,1.45,1.19,2.9,2.39,4.45,3.45,1.96,1.34,4.02,2.56,6.05,3.82,1.52.95,3.02,1.94,4.59,2.82,1.63.91,3.31,1.75,5,2.55,2.16,1.02,4.24,2.17,6.53,2.94,2.07.7,4.03,1.74,6.11,2.42,2.8.9,5.54,2.04,8.48,2.49.16.03.33.04.47.1,2.76,1.33,5.83,1.23,8.72,2,2.83.75,5.76.85,8.66,1.15,4.37.45,8.75.9,13.15.69,1.92-.09,3.83-.23,5.74-.38,2.55-.21,5.1-.39,7.64-.72,2.25-.29,4.48-.78,6.72-1.18,1.09-.2,2.21-.33,3.29-.62,2.96-.8,5.98-1.41,8.85-2.54.63-.24,1.31-.37,1.96-.54.27-.07.56-.09.82-.19,1.78-.69,3.57-1.38,5.33-2.12,2.2-.93,4.42-1.85,6.57-2.9,2.54-1.25,5.02-2.63,7.5-3.99,3.78-2.07,7.39-4.43,10.82-7.04,2.44-1.86,4.79-3.85,7.18-5.77.25-.2.49-.42.77-.57.68-.34,1.19-.21,1.72.33,1.2,1.22,2.41,2.44,3.65,3.63,3.41,3.25,6.84,6.49,10.27,9.73.32.3.67.57,1,.85.88.74.96,1.68.1,2.46Z"/>
  <path class="cls-1" d="M300.06,207.02c0,2.35.01,4.71-.02,7.07-.01.96-.06,1.93-.22,2.87-.54,3.23-1.18,6.44-1.69,9.68-.6,3.76-1.77,7.37-3,10.96-.6,1.73-1.33,3.42-2.07,5.1-.78,1.79-1.57,3.58-2.49,5.3-1.44,2.67-3.02,5.26-4.5,7.91-.99,1.78-2.21,3.39-3.47,4.99-1.48,1.88-2.77,3.92-4.36,5.69-2.52,2.83-5.21,5.52-7.86,8.24-2.15,2.21-4.56,4.12-7.01,5.97-1.88,1.42-3.83,2.74-5.78,4.07-1.34.92-2.68,1.87-4.11,2.64-2.84,1.55-5.71,3.02-8.61,4.45-1.6.8-3.25,1.54-4.93,2.14-2.7.96-5.37,2.04-8.17,2.71-2.8.67-5.57,1.4-8.37,2.06-.89.22-1.81.32-2.71.46-6.9,1.07-13.83,1.41-20.79,1.06-1.91-.1-3.82-.32-5.73-.51-1.74-.19-3.48-.41-5.23-.63-.23-.02-.48-.04-.71-.1-3.36-.85-6.74-1.65-10.08-2.57-2.26-.62-4.48-1.4-6.72-2.12-.3-.1-.59-.24-.89-.36-.99-.42-1.99-.81-2.97-1.26-1.8-.84-3.6-1.69-5.38-2.58-1.36-.67-2.71-1.37-4.03-2.11-1.42-.81-2.82-1.65-4.2-2.52-1.28-.81-2.55-1.64-3.78-2.53-1.58-1.15-3.14-2.33-4.66-3.56-2.96-2.38-5.85-4.84-8.46-7.6-1.54-1.62-3.1-3.23-4.52-4.95-2.05-2.5-4.02-5.07-5.95-7.67-.9-1.21-1.64-2.55-2.44-3.84-.93-1.48-1.87-2.96-2.76-4.48-.58-.99-1.09-2.04-1.59-3.08-.73-1.55-1.42-3.12-2.13-4.68-.46-1.01-.98-2.01-1.35-3.05-1.08-3.05-2.14-6.1-3.1-9.18-.49-1.6-.67-3.29-1.16-4.89-1.11-3.66-1.33-7.47-1.98-11.2-.41-2.34-.34-4.77-.42-7.17-.03-1.19.64-1.75,1.93-1.75,4.68-.01,9.36-.01,14.04-.01,2,0,4,.06,5.99-.02,1.29-.05,2,.52,2.04,2.17.06,2.11.11,4.24.4,6.33.31,2.33.96,4.61,1.32,6.93.36,2.39,1.24,4.63,1.97,6.89.72,2.27,1.63,4.49,2.67,6.66,1.08,2.27,2.23,4.49,3.51,6.65,2.05,3.48,4.44,6.71,7.02,9.83,2.5,3.04,5.31,5.76,8.3,8.29,2.22,1.88,4.54,3.67,6.96,5.27,2.25,1.5,4.68,2.74,7.07,4.02,1.68.9,3.38,1.8,5.16,2.48,2.68,1.01,5.4,1.94,8.16,2.69,2.58.7,5.23,1.11,7.85,1.64,5.17,1.04,10.41.99,15.64.76,1.96-.08,3.9-.31,5.85-.47.12-.01.25-.01.36-.03,2.61-.57,5.23-1.09,7.82-1.72,1.7-.41,3.38-.96,5.05-1.48.49-.15.94-.44,1.42-.64,1.58-.66,3.16-1.3,4.75-1.94.22-.09.47-.13.68-.24,1.78-.96,3.59-1.89,5.34-2.92,1.99-1.17,4.01-2.32,5.87-3.68,2.23-1.62,4.36-3.38,6.42-5.21,1.85-1.64,3.59-3.41,5.26-5.23,1.52-1.64,2.96-3.37,4.28-5.17,1.58-2.15,3.05-4.39,4.46-6.65.92-1.49,1.65-3.1,2.46-4.65,1.25-2.38,2.08-4.92,3.1-7.39,1.04-2.5,1.63-5.09,2.31-7.67.53-2,.88-4.07,1.11-6.13.44-3.8.93-7.6.92-11.46-.09-37.9-.13-75.8-.19-113.71v-1.41c.1-.07.2-.14.3-.21.32.19.66.35.95.58,6.97,5.51,13.92,11.03,20.89,16.52.74.58,1,1.23,1,2.15-.03,33.07-.03,66.13-.04,99.2Z"/>
</svg>